<svg xmlns="http://www.w3.org/2000/svg" data-name="Layer 1" viewBox="0 0 100 125" x="0px" y="0px"><title>audio, soundwave, music, speech</title><g><path d="M8.50012,42.24864a3.999,3.999,0,0,0-4,4v8a4,4,0,0,0,8,0v-8A3.99894,3.99894,0,0,0,8.50012,42.24864Z"/><path d="M20.50012,18.24864a3.999,3.999,0,0,0-4,4v56a4,4,0,0,0,8,0v-56A3.99894,3.99894,0,0,0,20.50012,18.24864Z"/><path d="M32.50012,30.24864a3.999,3.999,0,0,0-4,4v32a4,4,0,1,0,8,0v-32A3.99894,3.99894,0,0,0,32.50012,30.24864Z"/><path d="M56.49988,18.24864a3.9977,3.9977,0,0,0-4,4v56a4,4,0,0,0,8,0v-56A3.9977,3.9977,0,0,0,56.49988,18.24864Z"/><path d="M68.49988,30.24864a3.9977,3.9977,0,0,0-4,4v32a4,4,0,0,0,8,0v-32A3.9977,3.9977,0,0,0,68.49988,30.24864Z"/><path d="M80.49988,38.24864a3.9977,3.9977,0,0,0-4,4v16a4,4,0,1,0,8,0v-16A3.9977,3.9977,0,0,0,80.49988,38.24864Z"/><path d="M92.49988,42.24864a3.9977,3.9977,0,0,0-4,4v8a4,4,0,1,0,8,0v-8A3.9977,3.9977,0,0,0,92.49988,42.24864Z"/><path d="M44.50012,42.24864a3.999,3.999,0,0,0-4,4v8a3.99988,3.99988,0,1,0,7.99976,0v-8A3.99874,3.99874,0,0,0,44.50012,42.24864Z"/></g><text x="0" y="115" fill="#000000" font-size="5px" font-weight="bold" font-family="'Helvetica Neue', Helvetica, Arial-Unicode, Arial, Sans-serif">Created by Evgeny Filatov</text><text x="0" y="120" fill="#000000" font-size="5px" font-weight="bold" font-family="'Helvetica Neue', Helvetica, Arial-Unicode, Arial, Sans-serif">from the Noun Project</text></svg>