<svg height="448pt" viewBox="-28 0 448 448" width="448pt" xmlns="http://www.w3.org/2000/svg"><path d="m360 48h16v-16h16v-16h-16v-16h-16v16h-16v16h16zm0 0"/><path d="m304 64h48v16h-48zm0 0"/><path d="m344 96h48v16h-48zm0 0"/><path d="m360 400h-16v16h-16v16h16v16h16v-16h16v-16h-16zm0 0"/><path d="m88 24h96c4.417969 0 8-3.582031 8-8v-16h-112v16c0 4.417969 3.582031 8 8 8zm0 0"/><path d="m272 412.800781c-63.570312 12.90625-128.644531-13.84375-164.757812-67.734375-36.109376-53.886718-36.109376-124.246094 0-178.132812 36.113281-53.890625 101.1875-80.640625 164.757812-67.734375v-75.199219c0-13.253906-10.746094-24-24-24h-40v16c0 13.253906-10.746094 24-24 24h-96c-13.253906 0-24-10.746094-24-24v-16h-40c-13.253906 0-24 10.746094-24 24v400c0 13.253906 10.746094 24 24 24h224c13.253906 0 24-10.746094 24-24zm-96-356.800781h16v16h-16zm-32 0h16v16h-16zm-32 0h16v16h-16zm10.710938 47.777344 10.289062 12.222656-12.257812 10.320312-10.285157-12.265624zm-12.390626 32.964844-10.320312 12.257812-12.257812-10.289062 10.28125-12.253907zm-30.320312-80.742188h16v16h-16zm-2.28125 97.070312 13.855469 8-8 13.859376-13.855469-8zm-15.40625 29.746094 15.03125 5.472656-5.472656 15.03125-15.03125-5.472656zm-10.007812 32 15.757812 2.777344-2.773438 15.757812-15.761718-2.785156zm-4.304688 33.183594h16v16h-16zm1.527344 33.464844 15.761718-2.785156 2.773438 15.761718-15.757812 2.773438zm7.3125 32.6875 15.03125-5.472656 5.472656 15.03125-15.03125 5.472656zm12.878906 30.917968 13.855469-8 8 13.859376-13.855469 8zm28.335938 40.472657-10.277344-12.253907 12.222656-10.289062 10.289062 12.257812zm24.65625 22.679687-12.253907-10.277344 10.285157-12.265624 12.257812 10.320312zm28.21875 18.058594-13.859376-8 8-13.855469 13.859376 8zm0 0"/><path d="m384 256c0-79.527344-64.472656-144-144-144s-144 64.472656-144 144 64.472656 144 144 144c79.492188-.09375 143.90625-64.507812 144-144zm-72.566406 42.976562c-1.332032 3.332032-4.722656 5.371094-8.289063 4.984376-3.570312-.386719-6.445312-3.101563-7.03125-6.640626l-8.457031-50.710937-7.792969 42.824219c-.679687 3.699218-3.847656 6.421875-7.605469 6.546875-3.757812.121093-7.097656-2.390625-8.019531-6.035157l-6.636719-26.6875-9.679687 58.0625c-.644531 3.839844-3.957031 6.660157-7.851563 6.679688h-.070312c-3.878906-.003906-7.195312-2.789062-7.871094-6.609375l-17.175781-97.277344-15.152344 65.6875c-.839843 3.628907-4.074219 6.203125-7.800781 6.199219-3.738281-.015625-6.964844-2.617188-7.777344-6.265625l-10.398437-46.71875-6.398438 15.960937c-1.21875 3.035157-4.15625 5.023438-7.425781 5.023438h-32v-16h26.585938l13.980468-34.976562c1.324219-3.226563 4.582032-5.222657 8.054688-4.941407 3.476562.285157 6.367187 2.785157 7.148437 6.183594l8.34375 37.519531 16.046875-69.601562c.910156-3.667969 4.21875-6.234375 8-6.199219 3.800782.101563 7.003906 2.863281 7.664063 6.609375l15.902343 90.078125 8.335938-50.007813c.632812-3.75 3.816406-6.535156 7.617188-6.664062 3.800781-.195312 7.199218 2.347656 8.082031 6.046875l7.007812 28 9.367188-51.503906c.699219-3.789063 4.007812-6.542969 7.863281-6.542969h.0625c3.886719.03125 7.183594 2.847656 7.824219 6.679688l11.3125 67.808593 5.386719-13.464843c1.214843-3.03125 4.148437-5.019532 7.414062-5.023438h32v16h-26.585938zm0 0"/></svg>